<mxfile host="Electron" modified="2024-03-28T05:41:40.014Z" agent="Mozilla/5.0 (Macintosh; Intel Mac OS X 10_15_7) AppleWebKit/537.36 (KHTML, like Gecko) draw.io/24.1.0 Chrome/120.0.6099.109 Electron/28.1.0 Safari/537.36" etag="_iAv8Hr5rQLeLOGm1ThT" version="24.1.0" type="device">
  <diagram name="페이지-1" id="_TzFSEaLR1zJCj_-jszU">
    <mxGraphModel dx="1234" dy="1119" grid="1" gridSize="10" guides="1" tooltips="1" connect="1" arrows="1" fold="1" page="1" pageScale="1" pageWidth="3300" pageHeight="4681" math="0" shadow="0">
      <root>
        <mxCell id="0" />
        <mxCell id="1" parent="0" />
        <mxCell id="bS21o1_uWaXYQEzGkOwX-87" value="" style="group" parent="1" vertex="1" connectable="0">
          <mxGeometry x="30" y="730" width="470" height="260" as="geometry" />
        </mxCell>
        <mxCell id="VdtkkCyK6IpsbUPx0Rhc-1" value="&lt;font style=&quot;font-size: 35px;&quot;&gt;Coordinator&lt;/font&gt;" style="rounded=0;whiteSpace=wrap;html=1;" parent="bS21o1_uWaXYQEzGkOwX-87" vertex="1">
          <mxGeometry x="30" width="410" height="120" as="geometry" />
        </mxCell>
        <mxCell id="VdtkkCyK6IpsbUPx0Rhc-3" value="" style="endArrow=classic;html=1;rounded=0;" parent="bS21o1_uWaXYQEzGkOwX-87" edge="1">
          <mxGeometry width="50" height="50" relative="1" as="geometry">
            <mxPoint x="70" y="120" as="sourcePoint" />
            <mxPoint x="70" y="200" as="targetPoint" />
          </mxGeometry>
        </mxCell>
        <mxCell id="VdtkkCyK6IpsbUPx0Rhc-4" value="" style="endArrow=classic;html=1;rounded=0;" parent="bS21o1_uWaXYQEzGkOwX-87" edge="1">
          <mxGeometry width="50" height="50" relative="1" as="geometry">
            <mxPoint x="253" y="120" as="sourcePoint" />
            <mxPoint x="253" y="200" as="targetPoint" />
          </mxGeometry>
        </mxCell>
        <mxCell id="VdtkkCyK6IpsbUPx0Rhc-5" value="" style="endArrow=classic;html=1;rounded=0;" parent="bS21o1_uWaXYQEzGkOwX-87" edge="1">
          <mxGeometry width="50" height="50" relative="1" as="geometry">
            <mxPoint x="420" y="120" as="sourcePoint" />
            <mxPoint x="420" y="200" as="targetPoint" />
          </mxGeometry>
        </mxCell>
        <mxCell id="VdtkkCyK6IpsbUPx0Rhc-6" value="" style="endArrow=classic;html=1;rounded=0;" parent="bS21o1_uWaXYQEzGkOwX-87" edge="1">
          <mxGeometry width="50" height="50" relative="1" as="geometry">
            <mxPoint x="50" y="200" as="sourcePoint" />
            <mxPoint x="50" y="120" as="targetPoint" />
          </mxGeometry>
        </mxCell>
        <mxCell id="VdtkkCyK6IpsbUPx0Rhc-7" value="" style="endArrow=classic;html=1;rounded=0;" parent="bS21o1_uWaXYQEzGkOwX-87" edge="1">
          <mxGeometry width="50" height="50" relative="1" as="geometry">
            <mxPoint x="230" y="200" as="sourcePoint" />
            <mxPoint x="230" y="120" as="targetPoint" />
          </mxGeometry>
        </mxCell>
        <mxCell id="VdtkkCyK6IpsbUPx0Rhc-8" value="" style="endArrow=classic;html=1;rounded=0;" parent="bS21o1_uWaXYQEzGkOwX-87" edge="1">
          <mxGeometry width="50" height="50" relative="1" as="geometry">
            <mxPoint x="400" y="200" as="sourcePoint" />
            <mxPoint x="400" y="120" as="targetPoint" />
          </mxGeometry>
        </mxCell>
        <mxCell id="VdtkkCyK6IpsbUPx0Rhc-9" value="VC" style="rounded=0;whiteSpace=wrap;html=1;" parent="bS21o1_uWaXYQEzGkOwX-87" vertex="1">
          <mxGeometry y="200" width="120" height="60" as="geometry" />
        </mxCell>
        <mxCell id="VdtkkCyK6IpsbUPx0Rhc-10" value="VC" style="rounded=0;whiteSpace=wrap;html=1;" parent="bS21o1_uWaXYQEzGkOwX-87" vertex="1">
          <mxGeometry x="175" y="200" width="120" height="60" as="geometry" />
        </mxCell>
        <mxCell id="VdtkkCyK6IpsbUPx0Rhc-11" value="VC" style="rounded=0;whiteSpace=wrap;html=1;" parent="bS21o1_uWaXYQEzGkOwX-87" vertex="1">
          <mxGeometry x="350" y="200" width="120" height="60" as="geometry" />
        </mxCell>
        <mxCell id="VdtkkCyK6IpsbUPx0Rhc-12" value="Request" style="text;strokeColor=none;align=center;fillColor=none;html=1;verticalAlign=middle;whiteSpace=wrap;rounded=0;rotation=-90;" parent="bS21o1_uWaXYQEzGkOwX-87" vertex="1">
          <mxGeometry x="10" y="140" width="50" height="40" as="geometry" />
        </mxCell>
        <mxCell id="VdtkkCyK6IpsbUPx0Rhc-13" value="Request" style="text;strokeColor=none;align=center;fillColor=none;html=1;verticalAlign=middle;whiteSpace=wrap;rounded=0;rotation=-90;" parent="bS21o1_uWaXYQEzGkOwX-87" vertex="1">
          <mxGeometry x="190" y="140" width="50" height="40" as="geometry" />
        </mxCell>
        <mxCell id="VdtkkCyK6IpsbUPx0Rhc-14" value="Request" style="text;strokeColor=none;align=center;fillColor=none;html=1;verticalAlign=middle;whiteSpace=wrap;rounded=0;rotation=-90;" parent="bS21o1_uWaXYQEzGkOwX-87" vertex="1">
          <mxGeometry x="360" y="140" width="50" height="40" as="geometry" />
        </mxCell>
        <mxCell id="VdtkkCyK6IpsbUPx0Rhc-15" value="Reflect" style="text;strokeColor=none;align=center;fillColor=none;html=1;verticalAlign=middle;whiteSpace=wrap;rounded=0;rotation=90;" parent="bS21o1_uWaXYQEzGkOwX-87" vertex="1">
          <mxGeometry x="60" y="145" width="60" height="30" as="geometry" />
        </mxCell>
        <mxCell id="VdtkkCyK6IpsbUPx0Rhc-16" value="Reflect" style="text;strokeColor=none;align=center;fillColor=none;html=1;verticalAlign=middle;whiteSpace=wrap;rounded=0;rotation=90;" parent="bS21o1_uWaXYQEzGkOwX-87" vertex="1">
          <mxGeometry x="240" y="140" width="60" height="30" as="geometry" />
        </mxCell>
        <mxCell id="VdtkkCyK6IpsbUPx0Rhc-17" value="Reflect" style="text;strokeColor=none;align=center;fillColor=none;html=1;verticalAlign=middle;whiteSpace=wrap;rounded=0;rotation=90;" parent="bS21o1_uWaXYQEzGkOwX-87" vertex="1">
          <mxGeometry x="410" y="145" width="60" height="30" as="geometry" />
        </mxCell>
        <mxCell id="bS21o1_uWaXYQEzGkOwX-88" value="" style="group" parent="1" vertex="1" connectable="0">
          <mxGeometry x="580" y="730" width="470" height="260" as="geometry" />
        </mxCell>
        <mxCell id="bS21o1_uWaXYQEzGkOwX-89" value="&lt;font style=&quot;font-size: 35px;&quot;&gt;Coordinator&lt;/font&gt;" style="rounded=0;whiteSpace=wrap;html=1;" parent="bS21o1_uWaXYQEzGkOwX-88" vertex="1">
          <mxGeometry x="30" width="410" height="120" as="geometry" />
        </mxCell>
        <mxCell id="bS21o1_uWaXYQEzGkOwX-90" value="" style="endArrow=classic;html=1;rounded=0;" parent="bS21o1_uWaXYQEzGkOwX-88" edge="1">
          <mxGeometry width="50" height="50" relative="1" as="geometry">
            <mxPoint x="70" y="120" as="sourcePoint" />
            <mxPoint x="70" y="200" as="targetPoint" />
          </mxGeometry>
        </mxCell>
        <mxCell id="bS21o1_uWaXYQEzGkOwX-91" value="" style="endArrow=classic;html=1;rounded=0;" parent="bS21o1_uWaXYQEzGkOwX-88" edge="1">
          <mxGeometry width="50" height="50" relative="1" as="geometry">
            <mxPoint x="253" y="120" as="sourcePoint" />
            <mxPoint x="253" y="200" as="targetPoint" />
          </mxGeometry>
        </mxCell>
        <mxCell id="bS21o1_uWaXYQEzGkOwX-92" value="" style="endArrow=classic;html=1;rounded=0;" parent="bS21o1_uWaXYQEzGkOwX-88" edge="1">
          <mxGeometry width="50" height="50" relative="1" as="geometry">
            <mxPoint x="420" y="120" as="sourcePoint" />
            <mxPoint x="420" y="200" as="targetPoint" />
          </mxGeometry>
        </mxCell>
        <mxCell id="bS21o1_uWaXYQEzGkOwX-93" value="" style="endArrow=classic;html=1;rounded=0;" parent="bS21o1_uWaXYQEzGkOwX-88" edge="1">
          <mxGeometry width="50" height="50" relative="1" as="geometry">
            <mxPoint x="50" y="200" as="sourcePoint" />
            <mxPoint x="50" y="120" as="targetPoint" />
          </mxGeometry>
        </mxCell>
        <mxCell id="bS21o1_uWaXYQEzGkOwX-94" value="" style="endArrow=classic;html=1;rounded=0;" parent="bS21o1_uWaXYQEzGkOwX-88" edge="1">
          <mxGeometry width="50" height="50" relative="1" as="geometry">
            <mxPoint x="230" y="200" as="sourcePoint" />
            <mxPoint x="230" y="120" as="targetPoint" />
          </mxGeometry>
        </mxCell>
        <mxCell id="bS21o1_uWaXYQEzGkOwX-95" value="" style="endArrow=classic;html=1;rounded=0;" parent="bS21o1_uWaXYQEzGkOwX-88" edge="1">
          <mxGeometry width="50" height="50" relative="1" as="geometry">
            <mxPoint x="400" y="200" as="sourcePoint" />
            <mxPoint x="400" y="120" as="targetPoint" />
          </mxGeometry>
        </mxCell>
        <mxCell id="bS21o1_uWaXYQEzGkOwX-96" value="VC" style="rounded=0;whiteSpace=wrap;html=1;" parent="bS21o1_uWaXYQEzGkOwX-88" vertex="1">
          <mxGeometry y="200" width="120" height="60" as="geometry" />
        </mxCell>
        <mxCell id="bS21o1_uWaXYQEzGkOwX-97" value="VC" style="rounded=0;whiteSpace=wrap;html=1;" parent="bS21o1_uWaXYQEzGkOwX-88" vertex="1">
          <mxGeometry x="175" y="200" width="120" height="60" as="geometry" />
        </mxCell>
        <mxCell id="bS21o1_uWaXYQEzGkOwX-98" value="VC" style="rounded=0;whiteSpace=wrap;html=1;" parent="bS21o1_uWaXYQEzGkOwX-88" vertex="1">
          <mxGeometry x="350" y="200" width="120" height="60" as="geometry" />
        </mxCell>
        <mxCell id="bS21o1_uWaXYQEzGkOwX-99" value="Request" style="text;strokeColor=none;align=center;fillColor=none;html=1;verticalAlign=middle;whiteSpace=wrap;rounded=0;rotation=-90;" parent="bS21o1_uWaXYQEzGkOwX-88" vertex="1">
          <mxGeometry x="10" y="140" width="50" height="40" as="geometry" />
        </mxCell>
        <mxCell id="bS21o1_uWaXYQEzGkOwX-100" value="Request" style="text;strokeColor=none;align=center;fillColor=none;html=1;verticalAlign=middle;whiteSpace=wrap;rounded=0;rotation=-90;" parent="bS21o1_uWaXYQEzGkOwX-88" vertex="1">
          <mxGeometry x="190" y="140" width="50" height="40" as="geometry" />
        </mxCell>
        <mxCell id="bS21o1_uWaXYQEzGkOwX-101" value="Request" style="text;strokeColor=none;align=center;fillColor=none;html=1;verticalAlign=middle;whiteSpace=wrap;rounded=0;rotation=-90;" parent="bS21o1_uWaXYQEzGkOwX-88" vertex="1">
          <mxGeometry x="360" y="140" width="50" height="40" as="geometry" />
        </mxCell>
        <mxCell id="bS21o1_uWaXYQEzGkOwX-102" value="Reflect" style="text;strokeColor=none;align=center;fillColor=none;html=1;verticalAlign=middle;whiteSpace=wrap;rounded=0;rotation=90;" parent="bS21o1_uWaXYQEzGkOwX-88" vertex="1">
          <mxGeometry x="60" y="145" width="60" height="30" as="geometry" />
        </mxCell>
        <mxCell id="bS21o1_uWaXYQEzGkOwX-103" value="Reflect" style="text;strokeColor=none;align=center;fillColor=none;html=1;verticalAlign=middle;whiteSpace=wrap;rounded=0;rotation=90;" parent="bS21o1_uWaXYQEzGkOwX-88" vertex="1">
          <mxGeometry x="240" y="140" width="60" height="30" as="geometry" />
        </mxCell>
        <mxCell id="bS21o1_uWaXYQEzGkOwX-104" value="Reflect" style="text;strokeColor=none;align=center;fillColor=none;html=1;verticalAlign=middle;whiteSpace=wrap;rounded=0;rotation=90;" parent="bS21o1_uWaXYQEzGkOwX-88" vertex="1">
          <mxGeometry x="410" y="145" width="60" height="30" as="geometry" />
        </mxCell>
        <mxCell id="bS21o1_uWaXYQEzGkOwX-105" value="" style="group" parent="1" vertex="1" connectable="0">
          <mxGeometry x="1120" y="730" width="470" height="260" as="geometry" />
        </mxCell>
        <mxCell id="bS21o1_uWaXYQEzGkOwX-106" value="&lt;font style=&quot;font-size: 35px;&quot;&gt;Coordinator&lt;/font&gt;" style="rounded=0;whiteSpace=wrap;html=1;" parent="bS21o1_uWaXYQEzGkOwX-105" vertex="1">
          <mxGeometry x="30" width="410" height="120" as="geometry" />
        </mxCell>
        <mxCell id="bS21o1_uWaXYQEzGkOwX-107" value="" style="endArrow=classic;html=1;rounded=0;" parent="bS21o1_uWaXYQEzGkOwX-105" edge="1">
          <mxGeometry width="50" height="50" relative="1" as="geometry">
            <mxPoint x="70" y="120" as="sourcePoint" />
            <mxPoint x="70" y="200" as="targetPoint" />
          </mxGeometry>
        </mxCell>
        <mxCell id="bS21o1_uWaXYQEzGkOwX-108" value="" style="endArrow=classic;html=1;rounded=0;" parent="bS21o1_uWaXYQEzGkOwX-105" edge="1">
          <mxGeometry width="50" height="50" relative="1" as="geometry">
            <mxPoint x="253" y="120" as="sourcePoint" />
            <mxPoint x="253" y="200" as="targetPoint" />
          </mxGeometry>
        </mxCell>
        <mxCell id="bS21o1_uWaXYQEzGkOwX-109" value="" style="endArrow=classic;html=1;rounded=0;" parent="bS21o1_uWaXYQEzGkOwX-105" edge="1">
          <mxGeometry width="50" height="50" relative="1" as="geometry">
            <mxPoint x="420" y="120" as="sourcePoint" />
            <mxPoint x="420" y="200" as="targetPoint" />
          </mxGeometry>
        </mxCell>
        <mxCell id="bS21o1_uWaXYQEzGkOwX-110" value="" style="endArrow=classic;html=1;rounded=0;" parent="bS21o1_uWaXYQEzGkOwX-105" edge="1">
          <mxGeometry width="50" height="50" relative="1" as="geometry">
            <mxPoint x="50" y="200" as="sourcePoint" />
            <mxPoint x="50" y="120" as="targetPoint" />
          </mxGeometry>
        </mxCell>
        <mxCell id="bS21o1_uWaXYQEzGkOwX-111" value="" style="endArrow=classic;html=1;rounded=0;" parent="bS21o1_uWaXYQEzGkOwX-105" edge="1">
          <mxGeometry width="50" height="50" relative="1" as="geometry">
            <mxPoint x="230" y="200" as="sourcePoint" />
            <mxPoint x="230" y="120" as="targetPoint" />
          </mxGeometry>
        </mxCell>
        <mxCell id="bS21o1_uWaXYQEzGkOwX-112" value="" style="endArrow=classic;html=1;rounded=0;" parent="bS21o1_uWaXYQEzGkOwX-105" edge="1">
          <mxGeometry width="50" height="50" relative="1" as="geometry">
            <mxPoint x="400" y="200" as="sourcePoint" />
            <mxPoint x="400" y="120" as="targetPoint" />
          </mxGeometry>
        </mxCell>
        <mxCell id="bS21o1_uWaXYQEzGkOwX-113" value="VC" style="rounded=0;whiteSpace=wrap;html=1;" parent="bS21o1_uWaXYQEzGkOwX-105" vertex="1">
          <mxGeometry y="200" width="120" height="60" as="geometry" />
        </mxCell>
        <mxCell id="bS21o1_uWaXYQEzGkOwX-114" value="VC" style="rounded=0;whiteSpace=wrap;html=1;" parent="bS21o1_uWaXYQEzGkOwX-105" vertex="1">
          <mxGeometry x="175" y="200" width="120" height="60" as="geometry" />
        </mxCell>
        <mxCell id="bS21o1_uWaXYQEzGkOwX-115" value="VC" style="rounded=0;whiteSpace=wrap;html=1;" parent="bS21o1_uWaXYQEzGkOwX-105" vertex="1">
          <mxGeometry x="350" y="200" width="120" height="60" as="geometry" />
        </mxCell>
        <mxCell id="bS21o1_uWaXYQEzGkOwX-116" value="Request" style="text;strokeColor=none;align=center;fillColor=none;html=1;verticalAlign=middle;whiteSpace=wrap;rounded=0;rotation=-90;" parent="bS21o1_uWaXYQEzGkOwX-105" vertex="1">
          <mxGeometry x="10" y="140" width="50" height="40" as="geometry" />
        </mxCell>
        <mxCell id="bS21o1_uWaXYQEzGkOwX-117" value="Request" style="text;strokeColor=none;align=center;fillColor=none;html=1;verticalAlign=middle;whiteSpace=wrap;rounded=0;rotation=-90;" parent="bS21o1_uWaXYQEzGkOwX-105" vertex="1">
          <mxGeometry x="190" y="140" width="50" height="40" as="geometry" />
        </mxCell>
        <mxCell id="bS21o1_uWaXYQEzGkOwX-118" value="Request" style="text;strokeColor=none;align=center;fillColor=none;html=1;verticalAlign=middle;whiteSpace=wrap;rounded=0;rotation=-90;" parent="bS21o1_uWaXYQEzGkOwX-105" vertex="1">
          <mxGeometry x="360" y="140" width="50" height="40" as="geometry" />
        </mxCell>
        <mxCell id="bS21o1_uWaXYQEzGkOwX-119" value="Reflect" style="text;strokeColor=none;align=center;fillColor=none;html=1;verticalAlign=middle;whiteSpace=wrap;rounded=0;rotation=90;" parent="bS21o1_uWaXYQEzGkOwX-105" vertex="1">
          <mxGeometry x="60" y="145" width="60" height="30" as="geometry" />
        </mxCell>
        <mxCell id="bS21o1_uWaXYQEzGkOwX-120" value="Reflect" style="text;strokeColor=none;align=center;fillColor=none;html=1;verticalAlign=middle;whiteSpace=wrap;rounded=0;rotation=90;" parent="bS21o1_uWaXYQEzGkOwX-105" vertex="1">
          <mxGeometry x="240" y="140" width="60" height="30" as="geometry" />
        </mxCell>
        <mxCell id="bS21o1_uWaXYQEzGkOwX-121" value="Reflect" style="text;strokeColor=none;align=center;fillColor=none;html=1;verticalAlign=middle;whiteSpace=wrap;rounded=0;rotation=90;" parent="bS21o1_uWaXYQEzGkOwX-105" vertex="1">
          <mxGeometry x="410" y="145" width="60" height="30" as="geometry" />
        </mxCell>
        <mxCell id="bS21o1_uWaXYQEzGkOwX-122" value="" style="endArrow=classic;html=1;rounded=0;strokeWidth=5;" parent="1" edge="1">
          <mxGeometry width="50" height="50" relative="1" as="geometry">
            <mxPoint x="264.5" y="730" as="sourcePoint" />
            <mxPoint x="264.5" y="590" as="targetPoint" />
          </mxGeometry>
        </mxCell>
        <mxCell id="bS21o1_uWaXYQEzGkOwX-123" value="" style="endArrow=classic;html=1;rounded=0;strokeWidth=5;" parent="1" edge="1">
          <mxGeometry width="50" height="50" relative="1" as="geometry">
            <mxPoint x="814.5" y="730" as="sourcePoint" />
            <mxPoint x="814.5" y="590" as="targetPoint" />
          </mxGeometry>
        </mxCell>
        <mxCell id="bS21o1_uWaXYQEzGkOwX-124" value="" style="endArrow=classic;html=1;rounded=0;strokeWidth=5;" parent="1" edge="1">
          <mxGeometry width="50" height="50" relative="1" as="geometry">
            <mxPoint x="1330" y="730" as="sourcePoint" />
            <mxPoint x="1330" y="590" as="targetPoint" />
          </mxGeometry>
        </mxCell>
        <mxCell id="bS21o1_uWaXYQEzGkOwX-125" value="&lt;font style=&quot;font-size: 65px;&quot;&gt;Coordinator&lt;/font&gt;" style="rounded=0;whiteSpace=wrap;html=1;" parent="1" vertex="1">
          <mxGeometry x="240" y="420" width="1140" height="170" as="geometry" />
        </mxCell>
        <mxCell id="bS21o1_uWaXYQEzGkOwX-126" value="" style="endArrow=none;html=1;rounded=0;strokeWidth=5;strokeColor=default;startArrow=classic;startFill=1;endFill=0;" parent="1" edge="1">
          <mxGeometry width="50" height="50" relative="1" as="geometry">
            <mxPoint x="290" y="730" as="sourcePoint" />
            <mxPoint x="290" y="590" as="targetPoint" />
          </mxGeometry>
        </mxCell>
        <mxCell id="bS21o1_uWaXYQEzGkOwX-127" value="" style="endArrow=none;html=1;rounded=0;strokeWidth=5;strokeColor=default;startArrow=classic;startFill=1;endFill=0;" parent="1" edge="1">
          <mxGeometry width="50" height="50" relative="1" as="geometry">
            <mxPoint x="840" y="730" as="sourcePoint" />
            <mxPoint x="840" y="590" as="targetPoint" />
          </mxGeometry>
        </mxCell>
        <mxCell id="bS21o1_uWaXYQEzGkOwX-128" value="" style="endArrow=none;html=1;rounded=0;strokeWidth=5;strokeColor=default;startArrow=classic;startFill=1;endFill=0;" parent="1" edge="1">
          <mxGeometry width="50" height="50" relative="1" as="geometry">
            <mxPoint x="1354.5" y="730" as="sourcePoint" />
            <mxPoint x="1354.5" y="590" as="targetPoint" />
          </mxGeometry>
        </mxCell>
      </root>
    </mxGraphModel>
  </diagram>
</mxfile>
